<svg width="1600" height="1200" viewBox="0 0 1600 1200" fill="none" xmlns="http://www.w3.org/2000/svg">
  <rect width="1600" height="1200" fill="#111315"/>
  <rect x="48" y="48" width="1504" height="1104" rx="40" fill="url(#paint0_linear)" stroke="#9CB864" stroke-width="4"/>
  <rect x="120" y="220" width="1360" height="760" rx="32" fill="#1B211F" stroke="#6B7F48" stroke-width="8"/>
  <path d="M200 830C320 760 350 680 460 628C556 582 624 594 700 540C786 478 824 376 934 354C1052 330 1120 394 1210 420C1300 446 1360 430 1420 360" stroke="#5E7A49" stroke-width="18" stroke-linecap="round"/>
  <path d="M220 410C320 480 406 520 490 518C584 516 652 454 758 452C876 450 930 528 1030 548C1140 570 1258 530 1400 450" stroke="#495269" stroke-width="22" stroke-linecap="round"/>
  <circle cx="250" cy="830" r="28" fill="#C55B58"/>
  <rect x="430" y="610" width="54" height="54" fill="#7E62B8"/>
  <circle cx="726" cy="538" r="28" fill="#2C99B4"/>
  <rect x="910" y="355" width="54" height="54" fill="#92B34F"/>
  <circle cx="1128" cy="558" r="28" fill="#E0A953"/>
  <rect x="1330" y="404" width="54" height="54" fill="#CB635C"/>
  <text x="140" y="208" fill="#F6F2E8" font-family="Georgia, serif" font-size="132" letter-spacing="3">E.V.I.L.</text>
  <text x="144" y="298" fill="#D8C9AF" font-family="Arial, sans-serif" font-size="42">Placeholder for board, rulebook spreads, card layouts, or playtest photography</text>
  <text x="144" y="1034" fill="#9CB864" font-family="Arial, sans-serif" font-size="36" letter-spacing="5">BOARD GAME / MDA / PLAYTESTING / TEAMWORK</text>
  <defs>
    <linearGradient id="paint0_linear" x1="106" y1="98" x2="1462" y2="1048" gradientUnits="userSpaceOnUse">
      <stop stop-color="#1E2620"/>
      <stop offset="1" stop-color="#0A0D0C"/>
    </linearGradient>
  </defs>
</svg>
