<svg width="1600" height="1200" viewBox="0 0 1600 1200" fill="none" xmlns="http://www.w3.org/2000/svg">
  <rect width="1600" height="1200" fill="#111315"/>
  <rect x="48" y="48" width="1504" height="1104" rx="40" fill="#15181B" stroke="#7FA4D6" stroke-width="4"/>
  <rect x="118" y="118" width="1364" height="964" rx="32" fill="#E6E4DE"/>
  <path d="M320 392C420 322 472 312 540 380C612 452 700 430 750 514C800 596 786 680 842 726C912 784 1016 736 1098 774C1164 804 1216 858 1282 932" stroke="#16191D" stroke-width="34" stroke-linecap="round" stroke-opacity="0.9"/>
  <path d="M972 272C1026 300 1040 346 1000 396C958 450 972 494 920 542C862 594 788 588 742 640C694 692 700 772 626 820C578 850 516 846 430 790" stroke="#374F3F" stroke-width="28" stroke-linecap="round" stroke-opacity="0.9"/>
  <circle cx="1108" cy="300" r="18" fill="#D24F47"/>
  <circle cx="1180" cy="380" r="14" fill="#D24F47"/>
  <circle cx="1264" cy="456" r="16" fill="#D24F47"/>
  <text x="140" y="214" fill="#101315" font-family="Georgia, serif" font-size="132" letter-spacing="3">FROTTAGE</text>
  <text x="144" y="304" fill="#47505A" font-family="Arial, sans-serif" font-size="42">Placeholder for texture works, detail crops, and final mixed-media compositions</text>
  <text x="144" y="1008" fill="#3B5A84" font-family="Arial, sans-serif" font-size="36" letter-spacing="5">TEXTURE / PAREIDOLIA / MIXED MEDIA</text>
</svg>
