<svg width="1600" height="1200" viewBox="0 0 1600 1200" fill="none" xmlns="http://www.w3.org/2000/svg">
  <rect width="1600" height="1200" fill="#111315"/>
  <rect x="48" y="48" width="1504" height="1104" rx="40" fill="url(#paint0_linear)" stroke="#7EC6AE" stroke-width="4"/>
  <rect x="118" y="128" width="1364" height="944" rx="32" fill="#162227"/>
  <rect x="118" y="128" width="1364" height="420" rx="32" fill="#BFE8D6"/>
  <circle cx="800" cy="650" r="180" fill="#7EC6AE"/>
  <ellipse cx="800" cy="690" rx="160" ry="120" fill="#DDE7D8"/>
  <circle cx="708" cy="616" r="22" fill="#0B0D10"/>
  <circle cx="892" cy="616" r="22" fill="#0B0D10"/>
  <path d="M748 748C774 774 826 774 852 748" stroke="#0B0D10" stroke-width="18" stroke-linecap="round"/>
  <rect x="360" y="848" width="880" height="54" rx="27" fill="#F4E4B7" fill-opacity="0.3" stroke="#F4E4B7" stroke-width="8"/>
  <rect x="360" y="848" width="340" height="54" rx="27" fill="#D47A74"/>
  <text x="140" y="228" fill="#F6F2E8" font-family="Georgia, serif" font-size="132" letter-spacing="3">SHELDON</text>
  <text x="144" y="316" fill="#D8C9AF" font-family="Arial, sans-serif" font-size="42">Placeholder for sculpture photos, Scratch UI, or demo stills</text>
  <text x="144" y="1010" fill="#7EC6AE" font-family="Arial, sans-serif" font-size="36" letter-spacing="5">SCRATCH / MICRO:BIT / PHYSICAL PLAY</text>
  <defs>
    <linearGradient id="paint0_linear" x1="128" y1="94" x2="1450" y2="1048" gradientUnits="userSpaceOnUse">
      <stop stop-color="#1E2529"/>
      <stop offset="1" stop-color="#0B0E10"/>
    </linearGradient>
  </defs>
</svg>
